/* XPM */
static char *feae838d12c94a9acb88aeb9aab8cd33T5mUNtcUCxpxgCs8[] = {
/* columns rows colors chars-per-pixel */
"64 64 256 2 ",
"   c #383818",
".  c #2D2A2A",
"X  c #332C27",
"o  c #38362B",
"O  c #3B3A36",
"+  c #43361F",
"@  c #433828",
"#  c #533C2C",
"$  c #443D36",
"%  c #3F4523",
"&  c #484829",
"*  c #4F4E2D",
"=  c #4B4536",
"-  c #44423B",
";  c #4B443C",
":  c #584839",
">  c #575638",
",  c #664838",
"<  c #754E3C",
"1  c #65543E",
"2  c #64623C",
"3  c #423D45",
"4  c #3A4A48",
"5  c #3B5053",
"6  c #464A47",
"7  c #4C4A43",
"8  c #524C43",
"9  c #564E46",
"0  c #48514D",
"q  c #5A5447",
"w  c #53534C",
"e  c #5C554C",
"r  c #514554",
"t  c #4A5754",
"y  c #555652",
"u  c #575955",
"i  c #5D5A54",
"p  c #5C5D5A",
"a  c #604F41",
"s  c #665847",
"d  c #775A47",
"f  c #645B52",
"g  c #675E54",
"h  c #5C6141",
"j  c #5A625C",
"k  c #696449",
"l  c #76664C",
"z  c #696356",
"x  c #63625C",
"c  c #6B645B",
"v  c #736454",
"b  c #776957",
"n  c #7B6C5C",
"m  c #6E7155",
"M  c #7C775B",
"N  c #535A63",
"B  c #596868",
"V  c #506D75",
"C  c #656663",
"Z  c #6B6A64",
"A  c #676B68",
"S  c #736D63",
"D  c #786D64",
"F  c #6B736B",
"G  c #757266",
"H  c #7A7566",
"J  c #74746B",
"K  c #7B756C",
"L  c #7C7B6D",
"P  c #6D6E74",
"I  c #687778",
"U  c #757877",
"Y  c #7B7B74",
"T  c #7B7E7B",
"R  c #8E5736",
"E  c #855B4A",
"W  c #945D48",
"Q  c #89624D",
"!  c #93684A",
"~  c #8A6854",
"^  c #976B56",
"/  c #86755C",
"(  c #99725C",
")  c #A7745A",
"_  c #887867",
"`  c #847B6D",
"'  c #937164",
"]  c #997965",
"[  c #827D74",
"{  c #877E75",
"}  c #A87965",
"|  c #AE7B67",
" . c #75816E",
".. c #7A817B",
"X. c #88856D",
"o. c #968469",
"O. c #84837C",
"+. c #8A8478",
"@. c #978879",
"#. c #9B9578",
"$. c #A8836D",
"%. c #B7846B",
"&. c #A39261",
"*. c #A7926D",
"=. c #A78A75",
"-. c #B68B75",
";. c #A8947D",
":. c #BC937B",
">. c #B8947B",
",. c #C29B56",
"<. c #C38F78",
"1. c #C2947C",
"2. c #C8977C",
"3. c #D6AD76",
"4. c #4D798C",
"5. c #597A88",
"6. c #727C85",
"7. c #817E82",
"8. c #5D858D",
"9. c #5C8395",
"0. c #698385",
"q. c #7A8685",
"w. c #648796",
"e. c #749095",
"r. c #6198AE",
"t. c #69A6BE",
"y. c #57B0D6",
"u. c #69B7D6",
"i. c #69C2E3",
"p. c #6BC5E9",
"a. c #72C8EB",
"s. c #828383",
"d. c #878B87",
"f. c #8C8B84",
"g. c #948D85",
"h. c #8B918C",
"j. c #98958B",
"k. c #878D91",
"l. c #8D9392",
"z. c #899898",
"x. c #959896",
"c. c #9B9B94",
"v. c #9B9D9C",
"b. c #A69989",
"n. c #BA9B85",
"m. c #A59D95",
"M. c #B09B90",
"N. c #8FA09D",
"B. c #9AA19C",
"V. c #B6A78A",
"C. c #B4AD8C",
"Z. c #A3A49C",
"A. c #ABA498",
"S. c #B7A997",
"D. c #B8B399",
"F. c #8D9AA4",
"G. c #999DA1",
"H. c #A09EA6",
"J. c #99A6A6",
"K. c #8EA8B1",
"L. c #9BB2B7",
"P. c #A6A9A7",
"I. c #B7ACA4",
"U. c #AAB0AF",
"Y. c #B9B4A8",
"T. c #A7ADB5",
"R. c #ADB2B2",
"E. c #ABB4B8",
"W. c #B2B5B4",
"Q. c #B7B9BA",
"!. c #B4BABB",
"~. c #C39B83",
"^. c #C89C87",
"/. c #D29D8D",
"(. c #C9A28A",
"). c #C9A894",
"_. c #D5A895",
"`. c #C8B49B",
"'. c #D3B197",
"]. c #C9B3A4",
"[. c #C6B7A8",
"{. c #C5BCB5",
"}. c #CCBCB3",
"|. c #E2AFA6",
" X c #BFC1B8",
".X c #D6C89B",
"XX c #DCD39E",
"oX c #D5CCA6",
"OX c #D5C8A8",
"+X c #C8C3B7",
"@X c #CCC2BC",
"#X c #D2C4BC",
"$X c #D6CAB9",
"%X c #DBD3BB",
"&X c #E8D1AF",
"*X c #E7D7BA",
"=X c #F8E1BF",
"-X c #9BB9C1",
";X c #AEBBC8",
":X c #B8BDC3",
">X c #C2BFC5",
",X c #BCC2C4",
"<X c #BCC4C9",
"1X c #A4C9DE",
"2X c #BDCAD6",
"3X c #CEC5C1",
"4X c #C8C8C7",
"5X c #C4C5CB",
"6X c #C3CACC",
"7X c #D1C7C4",
"8X c #D4CAC4",
"9X c #DACCC5",
"0X c #D5CCCB",
"qX c #D9CECC",
"wX c #D7D3C9",
"eX c #DBD2CD",
"rX c #C7CCD2",
"tX c #D8CFD1",
"yX c #CCD3D5",
"uX c #C5D0DA",
"iX c #CDD6DB",
"pX c #CFD8DC",
"aX c #D5D6D6",
"sX c #DCD3D4",
"dX c #DBD6DB",
"fX c #D2DADD",
"gX c #DCDADC",
"hX c #E5D9C7",
"jX c #F2DFC7",
"kX c #E2D9D6",
"lX c #E2DADC",
"zX c #DEE1DE",
"xX c #ECE2CB",
"cX c #E8E5D8",
"vX c #F6EBD2",
"bX c #F3EBD8",
"nX c #C3D3E4",
"mX c #D3D6E1",
"MX c #D5DEE2",
"NX c #DADDE3",
"BX c #E2DDE3",
"VX c #D7E0E5",
"CX c #D9E1E6",
"ZX c #DBE4EA",
"AX c #DFE8EE",
"SX c #E4E3E4",
"DX c #EAE8E7",
"FX c #E4E4EA",
"GX c #E1E9EE",
"HX c #EBEBEB",
"JX c #F0EEEC",
"KX c #F7F5E9",
"LX c #E6E7F2",
"PX c #E3EAF0",
"IX c #EAECF4",
"UX c #F5F6F3",
/* pixels */
"W.P.P.J.B.l.h.h.h.f.O.L +.b.C.b.+.{ @.O.Z J J Z F J L L G C C O.I.Z...F x j x x x j C J J Y c.g.{ ` [ [ +.g.b.V.b.j.h.k.z.J.k.q.",
"yX6X,XQ.W.P.B.x.l.h.d.s.g.A.A.b.j.@.g.O.F L  .Z Z L X.X.J Z A O.A.c.T U Z C C C C C A J U O.c.j.+.{ { +.+.j.M.S.A.c.h.l.J.P.J.G.",
"CXCXMXfXyX6X,XW.U.P.v.x.x.c.c.c.m.j.c.h.Y O.+.X. .+.+.X.K Z A Y c.f.U U A A A A A Z A F U f.c.j.@.+.f.g.j.c.m.A.Z.Z.Z.P.U.Q.Q.Q.",
"CXCXCXCXVXMXfXyXrX<X,XQ.R.U.P.P.P.P.P.v.l.B.D.D.D.D.D.A.j.O.T ..j.d.T T U U U U T T q.s.d.x.P.Z.c.c.c.v.v.Z.P.P.U.W.Q.,X6XyXyXyX",
"MXCXCXCXVXVXVXCXVXMXMXpXiXrX6X6X6X<X<XQ.Q. X%X%X%X%X$X+XD.B.x.c.B.x.l.l.l.l.l.l.x.x.v.J.P.U.Q.Q.W.R.R.W.W.Q.Q.,X5XrXaXfXCXAXGXGX",
"MXMXMXCXCXVXMXVXVXMXMXMXMXMXMXMXMXMXMXfXiXaXcXbXxXxXxXwX+XQ.Q.Q.Q.Q.W.R.R.R.R.R.W.Q.Q.,X6XrXyXaXyXyXyXyXiXfXMXCXCXAXGXGXPXPXPXPX",
"fXMXMXMXMXfXfXMXMXMXMXMXMXMXMXMXCXCXCXCXMXCXDXKXbXbXbXcXaXfXfXfXfXfXiXyXyXyXyXiXiXfXfXMXCXAXFXGXGXGXGXGXGXGXPXPXPXPXPXGXGXGXGXAX",
"fXfXfXfXfXfXpXpXfXMXMXfXpXfXfXfXMXMXMXMXMXfXcXcXcXcXbXDXSXFXAXAXAXAXAXAXAXAXAXAXAXPXPXPXGXGXGXGXGXGXGXGXGXGXGXFXAXAXAXAXAXAXAXZX",
"gXgXiXiXpXpXiXiXiXfXfXpXiXiXiXiXpXfXfXfXpXpXfXfXfXzXDXbXDXZXAXZXCXZXAXAXAXAXAXAXAXAXPXGXAXAXAXAXAXAXAXAXZXZXAXZXZXZXZXZXZXZXCXCX",
"cXcXaXyXiXpXpXiXiXiXiXiXiXiXiXiXiXiXpXpXiXiXiXfXfXgXcXDXSXCXZXZXCXCXCXAXAXAXZXZXAXAXAXAXAXZXZXZXZXCXCXCXCXCXZXCXCXCXCXCXCXCXNXNX",
"bXcXaXiXpXfXpXpXiXiXiXiXiXiXiXiXiXiXiXiXiXiXfXMXMXfXzXSXCXVXCXCXCXCXCXZXZXZXZXCXZXZXZXZXZXZXZXZXVXMXMXMXMXNXCXCXCXCXNXCXCXCXNXMX",
"KXbXgXfXfXfXfXfXpXiXiXiXiXiXiXiXiXiXiXiXiXiXfXMXMXfXMXCXMXaXwXwXsXgXCXCXCXCXVXVXZXZXZXZXZXZXCXMXMXMXMXMXMXNXCXCXCXNXCXCXCXCXCXMX",
"xXxXaXyXyXiXfXfXpXpXpXpXpXiXiXiXiXiXiXiXiXiXfXMXMXMXMXyXA.M.V.V.S.`.8XCXMXMXMXMXZXZXZXZXZXZXMXVXVXMXMXMXMXNXCXCXCXCXCXCXCXZXCXNX",
"Y.Y.I.U.W.,X6X6X6XrXyXyXyXiXpXfXfXpXpXpXpXfXfXMXCXCXiXm._ v / o.o.;.n.+XgXMXMXMXZXZXZXZXZXZXCXCXCXVXVXMXNXCXZXZXZXZXZXZXZXZXZXCX",
"D G H L f.Q.0XQ.P.P.U.W.Q.:X<X6XrXyXyXiXiXfXfXfXCXCXI._ d : : : s / o.=.[.fXMXVXZXZXZXZXZXZXZXZXZXZXCXCXCXCXCXCXCXNXNXNXMXMXfXiX",
"q : : > b Y.4XZ.K [ [ Y O.d.x.J.P.U.R.Q.Q.,X<X6XrXrX@.v s a a : $ : l b o.4XMXMXMXMXMXMXMXfXfXfXiXiXiXyXyXrXrX6XrXaXrX,XQ.Q.R.U.",
"= $ $ @ ; [ j.G g H c 8 7 w x K Y h.j.s.s.d.l.x.v.j.n a : : : : : a d d l M.,X:XQ.Q.Q.Q.Q.Q.Q.R.R.U.P.P.J.v.v.v.W.0X4Xc.O.[ Y K ",
"q s q $ o ; : ; g _ c ; - ; i c x O.f.x y i p x C b d d d d : : E ] =.$.] _ f.d.s.O.O...T h.Z.h.O.Y Z x x S K G j.+XW.K q w q q ",
"b n n s 8 9 9 e g c z f i e x f 7 J O.x u f f p f z d ] $.( E Q | n.).).^./ b G G K G S x O.j.[ Z S x w w c H c c O.Y 8 - - ; - ",
"n n / n v s s f f f c D ` G S i X i Y S S G Z x x s ~ >.:.%.} | :.^.).).).>._ { +.+.+.` S [ f.x p ` L x x S K x w w 7 - $ ; g q ",
"' v b _ +._ v g v g g H { +.+.c O p O.` +.@.S e f s $.1.1.1.:.1.(.).(.(.(.n./ _ { +.+.@.{ { K 6 u +.+.Z Z G Z i i i 8 - - 8 z g ",
"=.' / @.{.+XI.o./ / n b ` S.Y.[ O C f.{ @.b.@.G s d >.1.~.^.^./.'.'.'.^.^.>.b b D ` @.b.@.f.T 6 x +.` x c c p w w 8 ; $ O O 8 q ",
"].].S.S.9XkX$XV.o.b.Y.A.g.@XeXc.3 P j.` ] n.[.Y.` d >.~.^.^.^._._._.(.^.~.$.s v @.A.b.;.o.g.d.t F A.+.f f g f e c K [ f o X X = ",
"%XhX9XOX%XxX$X;.o.D.$X{.M.8XkXZ.r U m.m.b.V.+X{.@.d >.>.] ( -.2.:.} ] -.^.$.1 v Y.+XS.=.` j.h.B h.@XI.` @.j.D b S.3X4Xm.: @ @ : ",
"*XxXhXXX&XhX[./ l #.[.A.@.[.8Xm.r U Y.$X#X`.].I.@.d ] d , , Q %.~ , : s ] =.1 v [.+X`.I.A.Z.l.B B.eX+Xm.+X+Xg.H Y.wXwXY.H n n v ",
".X.X'.'.oXwXA.k 2 l / l l @.I.h.r T @XcXcX*X[.[.S.~ ( ~ Q < ! 1.( < E Q ^ $.s s +X8X9XkXeX@Xz.B B.8XI.j.{.+X+.k b.+XoX.XC.D.D.b.",
">.*.o.o.V.D.L > l l d , > s +.d.p s.wXKXbXcXhXhX*X] $.~ , < ^ _.-.E , , ~ =.s n cXDXJXKXJXgXx.B l.Y.@.n X.` k s o.C..XXXXXoX%XOX",
"l 1 1 b / k & k #.b > * & * [ x.P h.eXKXKXvXbXbXxX] $.( E ! | _.~.^ E Q ( =., +.UXKXKXUXUXcXv.I h.j.n g a > > k o.C..XXX.XoX*X*X",
"&   > b b *   X.A.M 1 *   & Y x.U x.sXKXKXvXbXvXxXo.-.-.| %.1.|._.%.| %.>.n.d =.KXUXKXUXKXzXG.6.x.b._ v k > > h M #.>.C.V.C..XoX",
"1   > k >   > b.A._ / k & > O.v.s.v.eXKXbXxXxXvXvX>.1.^.^.2././.^.-.<.^.^.~.~ } KXUXKXKXKXgXG.q.P.A.` v k h > > h m M M M X.#.V.",
"l @ @ * %   X.D.#./ =./ s b j.W.P.R.wXcXxX*X*XxXvX(.~./.^.%.) ^ ~ ^ %.^.^.n.^ -.KXKXKXKXKXsXJ.k.Y.[.@.b k > * * * & * > > > s / ",
"~ : @ & & @ @.D._ / o./ n _ m.4X,X5X8X%XOX`.`.&X*X'.:.2.%.} E < , Q ) %.:.=.~ >.cXcXcXxXcXsXQ.U.@X{.b.` k > * & & % & * * * > k ",
"l a = : s q H #.v b ~ d b _ M.4X5X>X@X[.S.b.V.'.OX).-.%.) ) E < < E E ^ } ] ( n.[.Y.+X%XwXwX5X<X4XI.b.@.v q & o % & > k X.#.m k ",
"s 9 = a b v s s > s s a v _ b.P.P.P.Y.A.m.M.M.`.).=.} } Q ~ W W E E d E ( ~ ] S.`.b.V.[.+X{.Q.:XR.g.@.@.s q = o & * q M C.OX#.n ",
"9 $ $ 8 g g 9 : = : : q g b _ { Y f.A.A.j.b.b.b.@.g v ( < , d E E , , E Q b v b.`.V.b.M.P.m.x.v.x.` _ _ q ; = = = > l M C.oX#._ ",
"; O $ 7 7 7 ; - ; 9 e e f 9 9 c { b.Y.A.f.[ S D q $ v ~ ! } } } ( ( ( Q Q d ; H b.V.b.b.m.d.A F K n b c e ; ; : = s b b #.C._ D ",
"; O 7 w w 7 7 7 w i c e 7 $ e @.D.#X$XI.7.j r 6 . O D ~ ~ | ( E Q ] ( d d d O ; D @.b.M.P.G.6.B i e i Z Z w 7 8 - q v x U O.i i ",
"- o 7 w y w w i w e f 9 8 s _ `.*XjXhXY.k.P N 6 . o Y ~ d ) ^ E E ( ~ , s g X o f @.M.S.Q.;XT.k.C 7 7 p Z p y w - - w B U J w w ",
"- $ w w 8 8 w z q 8 e q b _ ;.&XjXjXhX{.G.6.N 3 . 6 x.{ , ( } } } ] d : a n X X f @.M.I.:XnXnX;Xz.p $ 7 p p p p w 7 7 u U Y w 7 ",
"w 8 i w - O 7 e q 8 s b @.=.n.OX=X=XhX{.H.6.r o X A E.m., d ] $.$.~ , # b ;.9 X 9 { S.[.5XnXnXuXT.U w 7 w w y u u i u y K L 7 O ",
"p f c 7 X X - 8 q e v _ ;.;.;.'.&X=XhX3XT.6.7 o $ [ 5X].d : d Q E , @ : =.S.b O 8 ] ).#X5XnXnXuXE.s.F C y 7 6 0 0 y p x K S - . ",
"Z Z S 8 o o - q f S ` o.;.;.=.'.&X*X*X8XT.6.w ; 9 f.I.:.} , # # # @ # ~ n.].` ; a o.'.$XrXnXnXrXT.d.[ T A w 6 6 O O 0 p F C w O ",
"K Z c 7 O O q b K [ [ ` @.@.@.V.OX&X%X{.v.U f e e m.I.-.~.( < + + : Q $.~._.].c e ] '.$X4X2X2X:XJ.s.s.d.T C 0 6 O o O 6 x F Z Z ",
"Z i w 6 - 6 c +.+.Y G n ` X.{ b.S.[.+XI.f.G c v K 0X}.~._.:.( < < ~ $.>.^.-.].c.g _ ).OXQ.;XE.T.l.T f.d.s.T B w 6 O O O u Z Y O.",
"y w y y 0 w O.m.+.Z y u K O.J Y l.J.P.Z.f.K K m.0XJX9X^._.^.:.} ] $.>.n.(.-.S.wXK _ V.[.T.K.F.k.T O.@.Y U T U A y O O 6 w C Y f.",
"c S x C j j f.b.L 0 6 t F ..F 6.e.e.z.c.h.v.rXIXHXcXkXn._.(.~.-.=.>.:.~.~.>.].HXR.F b.Y.J.e.e.I P f.j.G p F U f.+.0 6 6 6 u J O.",
"L H G Y U j L ` y 6 0 0 B F I w.w.0.q.P.rXIXUXSXBXkXSXS.~.(.~.>.>.:.n.~.:.-.#XHXSXd.j.Y.z.w.w.5.I h.j.G 0 t A f.j.G j u 0 w u j ",
"L J ..j.d.p z w 6 z v w t B 5.w.8.0.E.FXUXIXBXNXBXkXlX}.-.^.~.:.:.:.:.:.>.n.eXSXDXyXB.Z.q.5.w.9.I ..O.C 0 0 0 F +.O.U F c x i 0 ",
"F F j.P.h.x d b Y o./ e t 5.w.w.J.MXIXIXIXBXdXFXSXlXkXkX-.:.~.:.:.1.:.:.-.).gX0X0XdXaXJ.0.I 5.9.5.B B t 4 6 4 6 x ..l.d. .G Z j ",
"F ..Z.U.s.w l =.Y.S./ u 5.w.e.<XIXIXIXLXFXdXBXFXSXDXkXkX).-.2.:.:.:.:.:.-.#XsX8XtXgXSXFXT.0.V 8.9.V 5 4 4 4 4 4 4 I J.B.g...F A ",
"B ..Z.B.F 6 s >.&X).S V 9.w.<XUXIXLXLXFXdXdXFXSXNXLXSXkX9Xn.1.1.1.1.1.:.n.kXqXeXSXDXBXHXUX,XI I w.9.V 4 4 0 4 4 4 A J.J.c.f.U B ",
"F q.B.k.j w f } 3.2...9.9.K.IXIXLXLXFXNXsXgXBXBXBXFXHXkXeXhX].(.1.~.^.(.8XkXeXlXHXDXBXSXUXUXQ.0.8.9.5.N 5 0 0 4 4 j z.J.c.f.Y F ",
"U k.J...Z G b ! ) %.k.9.w.iXIXIXLXFXBXsXtXBXBXBXgXBXIXDXkX[.[.`.>.1.(.$XcXqXsXDXHXSXSXSXDXUXUXaXe.w.z...u 0 0 4 4 t k.L.N.q.F B ",
"q.N.z...` ` b R R } k.8.J.LXLXLXSXBXdX0XsXBXFXBXdXqXSXSX#XS.`.[.n.:.#XDXgXeXSXHXSXgXdXSXSXHXUXUXzXA.V.>.M t 0 4 0 x d.J.J.q.B B ",
"z.J.z.+.X.S g W W $.d.0.5XSXBXBXBXBXsX0XlXFXFXBXsX#X[.[.].}.$X%X).].cXlX0XgXDXHXgXNXdXdXBXSXHXHXUX*X3.3.&.m t 4 0 S g.P.L.e.I B ",
"P.J.d.X.J t Z @.b.I.G.z.sXsXsXsXtXsXqXsXSXFXBXlXsX9X}.}.#X#X9X9X}.@X8XA.@XDXIXHXdXNXdXdXNXSXHXHXJXbX3.,.&. .N 5 4 Z +.P.E.z...F ",
"Q.J...F F I x.P.W.5X<XrXeX9X9XeX8XsX0XlXFXSXlXsXeX9X#X#X#X#XeXeX[.b.M.M.S.}.0X0XsXgXdXdXgXSXDXHXHXDX.X&.M w.4.t 4 0 J c.E.J.q.F ",
",XJ.U ..G.:X<XQ.:X5XmXgX9X8X8X9X8XqX9XlXSXBXdXsXqX9X8X8X8X8X8X@XS.S.D.].].I.].}.gXSXdXdXNXsXdXBXSXgX%X!  .t.t.4.5 4 y Y J.L.z.6.",
"Q.l.d.T.uXAXfX:X5X5XiXsX8X#X#X8X#X9XqXlXBXlXsXsXqX9X8X8X8X8X8X}.].[.[.}.}.}.}.8XgXNXdXdXdX7X0XgXdX0XsXo.q.i.i.t.4.5 4 u z.L.K.e.",
"J.q.P.iXZXPXyXQ.5X5X0X9X#X#X#X#X#X9XqXlXlXlXsXqXqXqX8X8XeXeX8X#X+X}.}.@X7X7X@X0XsXdXdXdX0X3XtXgX0X7XtXb.e.i.a.p.t.4.5 4 I L.L.e.",
"k.U Q.MXMXmX5XW.Q.5XtX8X}.#X#X#X}.9XqXlXlXsXsXqXqXqX0X9XeX8X@XeX8X}.@X7X8X7X7X0XtXdXgX0X{.7XsXsX3X3X0XY.9.y.i.a.p.r.V 4 B K.-Xt.",
"P I :XmXmXiX>XI.W.:XtX#X}.}.}.}.}.8XeXlXsXsXqXqXqXqX0X9XqX@X@XeXeX@X@X8X8X7X7X7X0XdXdX7X@X0XsX3X{.@X0X,Xr.y.i.a.a.u.4.4 5 e.-XK.",
"A 6.T.5XyXiX5XW.U.,X0X#X[.[.[.[.}.8XkXlXtXqXqXqXqX0X0X9X0X@X3XeXeX3X3X0X8X7X7X0X0XsXtX@X@XqXtX{.{.@X3X6Xu.u.p.a.a.i.r.V 4 I L.K.",
"#.c.U.Q.>X5X5XQ.R.<X0X#X[.[.].I.[.8XkXsXsXqXqXqXqX0X0XqX8X@X3X3XeX8X7X0X0X8X8X0X0X0X8X{.3XsX@XY.{.{.@XrX1Xa.p.p.p.u.t.4.5 B K.K."
};
